<?xml version="1.0" encoding="UTF-8" standalone="no"?>
<!DOCTYPE svg PUBLIC "-//W3C//DTD SVG 1.1//EN" "http://www.w3.org/Graphics/SVG/1.1/DTD/svg11.dtd">
<svg width="100%" height="100%" viewBox="0 0 1789 2672" version="1.1" xmlns="http://www.w3.org/2000/svg" xmlns:xlink="http://www.w3.org/1999/xlink" xml:space="preserve" style="fill-rule:evenodd;clip-rule:evenodd;stroke-linejoin:round;stroke-miterlimit:1.41421;">
    <g transform="matrix(1,0,0,1,-390.168,-300)">
        <g transform="matrix(1.79161,0,0,1.79161,-401.904,103.302)">
            <text x="490.787px" y="136.595px" style="font-family:'RobotoMono-Light', 'Roboto Mono';font-weight:300;font-size:32.992px;fill:none;">[https://]</text>
            <text x="490.787px" y="136.595px" style="font-family:'RobotoMono-Light', 'Roboto Mono';font-weight:300;font-size:32.992px;fill:white;">[https://]</text>
        </g>
        <g transform="matrix(1.3687,0,0,1.3687,123.866,183.576)">
            <text x="247.8px" y="244.441px" style="font-family:'RobotoMono-Thin', 'Roboto Mono';font-weight:250;font-size:133.333px;fill:none;">PROLOG.COMPUTER</text>
            <text x="247.8px" y="244.441px" style="font-family:'RobotoMono-Thin', 'Roboto Mono';font-weight:250;font-size:133.333px;fill:white;">PROLOG.COMPUTER</text>
        </g>
        <g transform="matrix(0.912271,0,0,0.912271,59.1193,-115.512)">
            <text x="497.958px" y="796.761px" style="font-family:'RobotoMono-Light', 'Roboto Mono';font-weight:300;font-size:54.167px;fill:none;">ARTIFICIAL INTELLIGENCE CREATED BY TEACHERS TO TEACH</text>
            <text x="497.958px" y="796.761px" style="font-family:'RobotoMono-Light', 'Roboto Mono';font-weight:300;font-size:54.167px;fill:white;">ARTIFICIAL INTELLIGENCE CREATED BY TEACHERS TO TEACH</text>
        </g>
    </g>
    <g transform="matrix(1,0,0,1,-376.782,-281.7)">
        <g transform="matrix(1.69648,0,0,1.33746,-1167.01,-705.44)">
            <g transform="matrix(0.589457,0,0,0.747686,373.594,467.981)">
                <text x="1429.16px" y="1892.26px" style="font-family:'RobotoMono-Light', 'Roboto Mono';font-weight:300;font-size:50px;fill:none;">1. Trust is not a choice.</text>
                <text x="1129.11px" y="1992.26px" style="font-family:'RobotoMono-Light', 'Roboto Mono';font-weight:300;font-size:50px;fill:none;">2.  Identity is an individual&apos;s language use.</text>
                <text x="1249.13px" y="2092.26px" style="font-family:'RobotoMono-Light', 'Roboto Mono';font-weight:300;font-size:50px;fill:none;">3.  Documents represent language use.</text>
                <text x="1159.1px" y="2192.26px" style="font-family:'RobotoMono-Light', 'Roboto Mono';font-weight:300;font-size:50px;fill:none;">4.  Enriching documents clarifies identity.</text>
                <text x="1339.14px" y="2292.26px" style="font-family:'RobotoMono-Light', 'Roboto Mono';font-weight:300;font-size:50px;fill:none;">5.  Witnesses increase context.</text>
                <text x="1174.12px" y="2392.26px" style="font-family:'RobotoMono-Light', 'Roboto Mono';font-weight:300;font-size:50px;fill:none;">6.  Faith is choosing to increase context.</text>
                <text x="949.079px" y="2492.26px" style="font-family:'RobotoMono-Light', 'Roboto Mono';font-weight:300;font-size:50px;fill:none;">7.  Individuals discern trust while acting in the moment.</text>
                <text x="1489.17px" y="2592.26px" style="font-family:'RobotoMono-Light', 'Roboto Mono';font-weight:300;font-size:50px;fill:none;">8.  Trust is context.</text>
                <text x="1114.11px" y="2692.26px" style="font-family:'RobotoMono-Light', 'Roboto Mono';font-weight:300;font-size:50px;fill:none;">9.  Context is more important than individual.</text>
                <text x="1489.17px" y="2792.26px" style="font-family:'RobotoMono-Light', 'Roboto Mono';font-weight:300;font-size:50px;fill:none;">10.  Trust is binary.</text>
            </g>
            <g transform="matrix(0.589457,0,0,0.747686,373.594,467.981)">
                <text x="1429.16px" y="1892.26px" style="font-family:'RobotoMono-Light', 'Roboto Mono';font-weight:300;font-size:50px;fill:white;">1. Trust is not a choice.</text>
                <text x="1129.11px" y="1992.26px" style="font-family:'RobotoMono-Light', 'Roboto Mono';font-weight:300;font-size:50px;fill:white;">2.  Identity is an individual&apos;s language use.</text>
                <text x="1249.13px" y="2092.26px" style="font-family:'RobotoMono-Light', 'Roboto Mono';font-weight:300;font-size:50px;fill:white;">3.  Documents represent language use.</text>
                <text x="1159.1px" y="2192.26px" style="font-family:'RobotoMono-Light', 'Roboto Mono';font-weight:300;font-size:50px;fill:white;">4.  Enriching documents clarifies identity.</text>
                <text x="1339.14px" y="2292.26px" style="font-family:'RobotoMono-Light', 'Roboto Mono';font-weight:300;font-size:50px;fill:white;">5.  Witnesses increase context.</text>
                <text x="1174.12px" y="2392.26px" style="font-family:'RobotoMono-Light', 'Roboto Mono';font-weight:300;font-size:50px;fill:white;">6.  Faith is choosing to increase context.</text>
                <text x="949.079px" y="2492.26px" style="font-family:'RobotoMono-Light', 'Roboto Mono';font-weight:300;font-size:50px;fill:white;">7.  Individuals discern trust while acting in the moment.</text>
                <text x="1489.17px" y="2592.26px" style="font-family:'RobotoMono-Light', 'Roboto Mono';font-weight:300;font-size:50px;fill:white;">8.  Trust is context.</text>
                <text x="1114.11px" y="2692.26px" style="font-family:'RobotoMono-Light', 'Roboto Mono';font-weight:300;font-size:50px;fill:white;">9.  Context is more important than individual.</text>
                <text x="1489.17px" y="2792.26px" style="font-family:'RobotoMono-Light', 'Roboto Mono';font-weight:300;font-size:50px;fill:white;">10.  Trust is binary.</text>
            </g>
        </g>
        <g transform="matrix(0.953052,0,0,1,622.289,818.343)">
            <text x="547.744px" y="883.914px" style="font-family:'RobotoMono-Regular', 'Roboto Mono';font-size:50px;fill:none;">THEOREMS:</text>
            <text x="547.744px" y="883.914px" style="font-family:'RobotoMono-Regular', 'Roboto Mono';font-size:50px;fill:white;">THEOREMS:</text>
        </g>
    </g>
    <g transform="matrix(1,0,0,1,3.01512,-1595)">
        <g transform="matrix(1,0,0,1,-303.819,180)">
            <text x="653.838px" y="1891.18px" style="font-family:'RobotoMono-Regular', 'Roboto Mono';font-size:50px;fill:none;">MISSION:</text>
            <text x="653.838px" y="1891.18px" style="font-family:'RobotoMono-Regular', 'Roboto Mono';font-size:50px;fill:white;">MISSION:</text>
        </g>
        <g transform="matrix(0.755266,0,0,0.289559,-51.1113,1496.62)">
            <g transform="matrix(1.32404,0,0,3.45353,-294.873,-4550.69)">
                <text x="910px" y="1892.26px" style="font-family:'RobotoMono-Light', 'Roboto Mono';font-weight:300;font-size:50px;fill:none;">Create <tspan x="1143.06px " y="1892.26px ">s</tspan>oftware <tspan x="1436.16px " y="1892.26px ">p</tspan>romoting</text>
                <text x="910px" y="1942.26px" style="font-family:'RobotoMono-Light', 'Roboto Mono';font-weight:300;font-size:50px;fill:none;">happiness <tspan x="1215.41px " y="1942.26px ">a</tspan>nd <tspan x="1340.79px " y="1942.26px ">l</tspan>earning <tspan x="1616.19px " y="1942.26px ">a</tspan>nd</text>
                <text x="910px" y="1992.26px" style="font-family:'RobotoMono-Light', 'Roboto Mono';font-weight:300;font-size:50px;fill:none;">to <tspan x="996.533px " y="1992.26px ">e</tspan>nable <tspan x="1203.09px " y="1992.26px ">o</tspan>thers <tspan x="1409.64px " y="1992.26px ">w</tspan>ho <tspan x="1526.18px " y="1992.26px ">d</tspan>esire</text>
                <text x="910px" y="2042.26px" style="font-family:'RobotoMono-Light', 'Roboto Mono';font-weight:300;font-size:50px;fill:none;">to do the same.</text>
            </g>
            <g transform="matrix(1.32404,0,0,3.45353,-294.873,-4550.69)">
                <text x="910px" y="1892.26px" style="font-family:'RobotoMono-Light', 'Roboto Mono';font-weight:300;font-size:50px;fill:white;">Create <tspan x="1143.06px " y="1892.26px ">s</tspan>oftware <tspan x="1436.16px " y="1892.26px ">p</tspan>romoting</text>
                <text x="910px" y="1942.26px" style="font-family:'RobotoMono-Light', 'Roboto Mono';font-weight:300;font-size:50px;fill:white;">happiness <tspan x="1215.41px " y="1942.26px ">a</tspan>nd <tspan x="1340.79px " y="1942.26px ">l</tspan>earning <tspan x="1616.19px " y="1942.26px ">a</tspan>nd</text>
                <text x="910px" y="1992.26px" style="font-family:'RobotoMono-Light', 'Roboto Mono';font-weight:300;font-size:50px;fill:white;">to <tspan x="996.533px " y="1992.26px ">e</tspan>nable <tspan x="1203.09px " y="1992.26px ">o</tspan>thers <tspan x="1409.64px " y="1992.26px ">w</tspan>ho <tspan x="1526.18px " y="1992.26px ">d</tspan>esire</text>
                <text x="910px" y="2042.26px" style="font-family:'RobotoMono-Light', 'Roboto Mono';font-weight:300;font-size:50px;fill:white;">to do the same.</text>
            </g>
        </g>
    </g>
    <g transform="matrix(0.822582,0,0,3.19,-141.143,-7115.98)">
        <g transform="matrix(1.21568,0,0,0.31348,-102.495,1681.97)">
            <text x="475.209px" y="2487.5px" style="font-family:'RobotoMono-Light', 'Roboto Mono';font-weight:300;font-size:50px;fill:none;">We <tspan x="576.968px " y="2487.5px ">a</tspan>re <tspan x="708.733px " y="2487.5px ">O</tspan>akland <tspan x="960.517px " y="2487.5px ">t</tspan>eachers <tspan x="1242.31px " y="2487.5px ">c</tspan>ollaborating <tspan x="1674.12px " y="2487.5px ">a</tspan>nd</text>
            <text x="475.209px" y="2537.5px" style="font-family:'RobotoMono-Light', 'Roboto Mono';font-weight:300;font-size:50px;fill:none;">building <tspan x="757.928px 787.933px 830.614px " y="2537.5px 2537.5px 2537.5px ">a c</tspan>ommunity. <tspan x="1173.34px 1216.02px " y="2537.5px 2537.5px "> W</tspan>e <tspan x="1318.71px " y="2537.5px ">m</tspan>eet <tspan x="1481.41px " y="2537.5px ">w</tspan>eekly <tspan x="1704.12px " y="2537.5px ">t</tspan>o</text>
            <text x="475.209px" y="2587.5px" style="font-family:'RobotoMono-Light', 'Roboto Mono';font-weight:300;font-size:50px;fill:none;">work <tspan x="655.044px " y="2587.5px ">h</tspan>ands-on <tspan x="954.923px " y="2587.5px ">t</tspan>o <tspan x="1074.75px " y="2587.5px ">b</tspan>uild <tspan x="1284.59px 1314.59px 1374.41px " y="2587.5px 2587.5px 2587.5px ">a n</tspan>ew <tspan x="1524.24px " y="2587.5px ">f</tspan>orm <tspan x="1704.1px " y="2587.5px ">o</tspan>f</text>
            <text x="475.209px" y="2637.5px" style="font-family:'RobotoMono-Light', 'Roboto Mono';font-weight:300;font-size:50px;fill:none;">computer <tspan x="755.036px " y="2637.5px ">f</tspan>or <tspan x="884.863px " y="2637.5px ">l</tspan>earning. <tspan x="1194.7px 1234.48px " y="2637.5px 2637.5px "> W</tspan>e <tspan x="1334.28px " y="2637.5px ">t</tspan>rain <tspan x="1524.1px " y="2637.5px ">t</tspan>eachers</text>
            <text x="475.209px" y="2687.5px" style="font-family:'RobotoMono-Light', 'Roboto Mono';font-weight:300;font-size:50px;fill:none;">to <tspan x="610.017px " y="2687.5px ">c</tspan>reate <tspan x="864.844px " y="2687.5px ">A</tspan>.I. <tspan x="1059.66px " y="2687.5px ">a</tspan>nd <tspan x="1224.47px " y="2687.5px ">h</tspan>elp <tspan x="1419.29px " y="2687.5px ">t</tspan>hem <tspan x="1614.11px " y="2687.5px ">b</tspan>uild</text>
            <text x="475.209px" y="2737.5px" style="font-family:'RobotoMono-Light', 'Roboto Mono';font-weight:300;font-size:50px;fill:none;">relationships <tspan x="917.46px " y="2737.5px ">w</tspan>ith <tspan x="1089.67px " y="2737.5px ">o</tspan>thers <tspan x="1321.88px " y="2737.5px ">t</tspan>o <tspan x="1434.08px " y="2737.5px ">d</tspan>emonstrate</text>
            <text x="475.209px" y="2787.5px" style="font-family:'RobotoMono-Light', 'Roboto Mono';font-weight:300;font-size:50px;fill:none;">how <tspan x="595.045px " y="2787.5px ">t</tspan>o <tspan x="684.876px " y="2787.5px ">t</tspan>each <tspan x="864.722px " y="2787.5px ">u</tspan>sing <tspan x="1044.57px " y="2787.5px ">A</tspan>.I. <tspan x="1194.41px " y="2787.5px ">t</tspan>o <tspan x="1284.24px " y="2787.5px ">e</tspan>nhance <tspan x="1524.1px " y="2787.5px ">e</tspan>mpathy,</text>
            <text x="475.209px" y="2837.5px" style="font-family:'RobotoMono-Light', 'Roboto Mono';font-weight:300;font-size:50px;fill:none;">learning, and accountability.</text>
            <text x="475.209px" y="2937.5px" style="font-family:'RobotoMono-Light', 'Roboto Mono';font-weight:300;font-size:50px;fill:none;">All <tspan x="620.018px " y="2937.5px ">a</tspan>re <tspan x="764.828px " y="2937.5px ">w</tspan>elcome <tspan x="1029.66px " y="2937.5px ">t</tspan>o <tspan x="1144.46px " y="2937.5px ">p</tspan>articipate <tspan x="1529.31px " y="2937.5px ">o</tspan>r <tspan x="1644.11px " y="2937.5px ">j</tspan>ust</text>
            <text x="475.209px" y="2987.5px" style="font-family:'RobotoMono-Light', 'Roboto Mono';font-weight:300;font-size:50px;fill:none;">listen. <tspan x="719.351px " y="2987.5px ">W</tspan>e <tspan x="813.468px " y="2987.5px ">n</tspan>eed <tspan x="967.595px " y="2987.5px ">t</tspan>eachers <tspan x="1241.74px " y="2987.5px ">w</tspan>ho <tspan x="1365.86px " y="2987.5px ">w</tspan>ant <tspan x="1519.99px " y="2987.5px ">t</tspan>o <tspan x="1614.11px " y="2987.5px ">l</tspan>earn</text>
            <text x="475.209px" y="3037.5px" style="font-family:'RobotoMono-Light', 'Roboto Mono';font-weight:300;font-size:50px;fill:none;">A.I. to become better at teaching.</text>
        </g>
        <g transform="matrix(1.21568,0,0,0.31348,-102.495,1681.97)">
            <text x="475.209px" y="2487.5px" style="font-family:'RobotoMono-Light', 'Roboto Mono';font-weight:300;font-size:50px;fill:white;">We <tspan x="576.968px " y="2487.5px ">a</tspan>re <tspan x="708.733px " y="2487.5px ">O</tspan>akland <tspan x="960.517px " y="2487.5px ">t</tspan>eachers <tspan x="1242.31px " y="2487.5px ">c</tspan>ollaborating <tspan x="1674.12px " y="2487.5px ">a</tspan>nd</text>
            <text x="475.209px" y="2537.5px" style="font-family:'RobotoMono-Light', 'Roboto Mono';font-weight:300;font-size:50px;fill:white;">building <tspan x="757.928px 787.933px 830.614px " y="2537.5px 2537.5px 2537.5px ">a c</tspan>ommunity. <tspan x="1173.34px 1216.02px " y="2537.5px 2537.5px "> W</tspan>e <tspan x="1318.71px " y="2537.5px ">m</tspan>eet <tspan x="1481.41px " y="2537.5px ">w</tspan>eekly <tspan x="1704.12px " y="2537.5px ">t</tspan>o</text>
            <text x="475.209px" y="2587.5px" style="font-family:'RobotoMono-Light', 'Roboto Mono';font-weight:300;font-size:50px;fill:white;">work <tspan x="655.044px " y="2587.5px ">h</tspan>ands-on <tspan x="954.923px " y="2587.5px ">t</tspan>o <tspan x="1074.75px " y="2587.5px ">b</tspan>uild <tspan x="1284.59px 1314.59px 1374.41px " y="2587.5px 2587.5px 2587.5px ">a n</tspan>ew <tspan x="1524.24px " y="2587.5px ">f</tspan>orm <tspan x="1704.1px " y="2587.5px ">o</tspan>f</text>
            <text x="475.209px" y="2637.5px" style="font-family:'RobotoMono-Light', 'Roboto Mono';font-weight:300;font-size:50px;fill:white;">computer <tspan x="755.036px " y="2637.5px ">f</tspan>or <tspan x="884.863px " y="2637.5px ">l</tspan>earning. <tspan x="1194.7px 1234.48px " y="2637.5px 2637.5px "> W</tspan>e <tspan x="1334.28px " y="2637.5px ">t</tspan>rain <tspan x="1524.1px " y="2637.5px ">t</tspan>eachers</text>
            <text x="475.209px" y="2687.5px" style="font-family:'RobotoMono-Light', 'Roboto Mono';font-weight:300;font-size:50px;fill:white;">to <tspan x="610.017px " y="2687.5px ">c</tspan>reate <tspan x="864.844px " y="2687.5px ">A</tspan>.I. <tspan x="1059.66px " y="2687.5px ">a</tspan>nd <tspan x="1224.47px " y="2687.5px ">h</tspan>elp <tspan x="1419.29px " y="2687.5px ">t</tspan>hem <tspan x="1614.11px " y="2687.5px ">b</tspan>uild</text>
            <text x="475.209px" y="2737.5px" style="font-family:'RobotoMono-Light', 'Roboto Mono';font-weight:300;font-size:50px;fill:white;">relationships <tspan x="917.46px " y="2737.5px ">w</tspan>ith <tspan x="1089.67px " y="2737.5px ">o</tspan>thers <tspan x="1321.88px " y="2737.5px ">t</tspan>o <tspan x="1434.08px " y="2737.5px ">d</tspan>emonstrate</text>
            <text x="475.209px" y="2787.5px" style="font-family:'RobotoMono-Light', 'Roboto Mono';font-weight:300;font-size:50px;fill:white;">how <tspan x="595.045px " y="2787.5px ">t</tspan>o <tspan x="684.876px " y="2787.5px ">t</tspan>each <tspan x="864.722px " y="2787.5px ">u</tspan>sing <tspan x="1044.57px " y="2787.5px ">A</tspan>.I. <tspan x="1194.41px " y="2787.5px ">t</tspan>o <tspan x="1284.24px " y="2787.5px ">e</tspan>nhance <tspan x="1524.1px " y="2787.5px ">e</tspan>mpathy,</text>
            <text x="475.209px" y="2837.5px" style="font-family:'RobotoMono-Light', 'Roboto Mono';font-weight:300;font-size:50px;fill:white;">learning, and accountability.</text>
            <text x="475.209px" y="2937.5px" style="font-family:'RobotoMono-Light', 'Roboto Mono';font-weight:300;font-size:50px;fill:white;">All <tspan x="620.018px " y="2937.5px ">a</tspan>re <tspan x="764.828px " y="2937.5px ">w</tspan>elcome <tspan x="1029.66px " y="2937.5px ">t</tspan>o <tspan x="1144.46px " y="2937.5px ">p</tspan>articipate <tspan x="1529.31px " y="2937.5px ">o</tspan>r <tspan x="1644.11px " y="2937.5px ">j</tspan>ust</text>
            <text x="475.209px" y="2987.5px" style="font-family:'RobotoMono-Light', 'Roboto Mono';font-weight:300;font-size:50px;fill:white;">listen. <tspan x="719.351px " y="2987.5px ">W</tspan>e <tspan x="813.468px " y="2987.5px ">n</tspan>eed <tspan x="967.595px " y="2987.5px ">t</tspan>eachers <tspan x="1241.74px " y="2987.5px ">w</tspan>ho <tspan x="1365.86px " y="2987.5px ">w</tspan>ant <tspan x="1519.99px " y="2987.5px ">t</tspan>o <tspan x="1614.11px " y="2987.5px ">l</tspan>earn</text>
            <text x="475.209px" y="3037.5px" style="font-family:'RobotoMono-Light', 'Roboto Mono';font-weight:300;font-size:50px;fill:white;">A.I. to become better at teaching.</text>
        </g>
    </g>
    <g transform="matrix(1,0,0,1,21.6076,0)">
        <g transform="matrix(1,0,0,1,-749.154,-306.219)">
            <text x="1477.33px" y="2893.62px" style="font-family:'RobotoMono-Medium', 'Roboto Mono';font-weight:500;font-size:45.833px;fill:none;">info@prolog.computer</text>
            <text x="1477.33px" y="2893.62px" style="font-family:'RobotoMono-Medium', 'Roboto Mono';font-weight:500;font-size:45.833px;fill:white;">info@prolog.computer</text>
        </g>
        <g transform="matrix(1,0,0,1,186.791,-487.464)">
            <text x="280.167px" y="3074.86px" style="font-family:'RobotoMono-Medium', 'Roboto Mono';font-weight:500;font-size:45.833px;fill:white;">mailto://</text>
        </g>
    </g>
</svg>
