<?xml version="1.0" encoding="UTF-8" standalone="no"?>
<!DOCTYPE svg PUBLIC "-//W3C//DTD SVG 1.1//EN" "http://www.w3.org/Graphics/SVG/1.1/DTD/svg11.dtd">
<svg width="100%" height="100%" viewBox="0 0 384 81" version="1.1" xmlns="http://www.w3.org/2000/svg" xmlns:xlink="http://www.w3.org/1999/xlink" xml:space="preserve" style="fill-rule:evenodd;clip-rule:evenodd;stroke-linecap:square;stroke-miterlimit:1.5;">
    <g id="PROLOG.2e.COMPUTER" transform="matrix(1.19063,0,0,1.23,1.80278,1.80278)">
        <g>
            <g transform="matrix(0.839895,0,0,0.813008,-18.1237,-165.826)">
                <text x="28.936px" y="224.908px" style="font-family:'RobotoMono-Light', 'Roboto Mono';font-weight:300;font-size:20px;fill:white;">PROLOG.COMPUTER</text>
            </g>
            <g transform="matrix(0.845801,0,0,0.830285,64.1523,23.1424)">
                <text x="0px" y="5.25px" style="font-family:'RobotoMono-Regular', 'Roboto Mono';font-size:7px;fill:white;">SWI-Prºlºg versiºn 7.5.10</text>
            </g>
        </g>
        <g transform="matrix(1.20665,0,0,0.250321,641.561,-53.6031)">
            <g transform="matrix(0.696056,0,0,3.24786,-452.107,121.089)">
                <g id="URI">
                    <text x="28.732px" y="96.33px" style="font-family:'RobotoMono-Thin', 'Roboto Mono';font-weight:250;font-size:14px;fill:white;">∂:2bbqwpd4e7346vnc/</text>
                </g>
            </g>
            <g transform="matrix(0.696056,0,0,3.24786,-639.051,253.193)">
                <text x="452.038px" y="56.789px" style="font-family:'RobotoMono-Bold', 'Roboto Mono';font-weight:700;font-size:24px;fill:white;">T<tspan x="467.64px 483.243px 498.845px 514.447px " y="56.789px 56.789px 56.789px 56.789px ">EACH</tspan></text>
            </g>
        </g>
        <g transform="matrix(1.33632,0,0,0.813008,-46.1194,-8.69143)">
            <path d="M34.512,54.936L273.347,54.936" style="fill:none;stroke:white;stroke-width:1.51px;"/>
        </g>
        <g transform="matrix(1.33632,0,0,0.813008,-46.1194,18.1378)">
            <path d="M34.512,54.936L273.347,54.936" style="fill:none;stroke:white;stroke-width:1.51px;"/>
        </g>
        <g transform="matrix(0.839895,0,0,1.07045,66.0738,-20.6931)">
            <path d="M113.626,52.936L113.626,19.331" style="fill:none;stroke:white;stroke-width:1.71px;"/>
        </g>
        <g transform="matrix(0.839895,0,0,0.755932,8.96096,21.3586)">
            <path d="M113.626,52.936L113.626,19.331" style="fill:none;stroke:white;stroke-width:2.07px;"/>
        </g>
        <g transform="matrix(0.839895,0,0,1.86883,223.974,-36.1269)">
            <path d="M113.626,52.936L113.626,19.331" style="fill:none;stroke:white;stroke-width:1.13px;"/>
        </g>
        <g transform="matrix(0.839895,0,0,0.813008,-170.647,40.4625)">
            <path d="M219.194,9.094L220.624,16.852L224.757,9.094L225.913,9.094L224.327,18.196L223.476,18.196L224.124,14.469L224.897,10.469L220.765,18.196L220.116,18.196L218.647,10.399L218.007,14.532L217.374,18.196L216.515,18.196L218.101,9.094L219.194,9.094Z" style="fill:white;"/>
            <path d="M231.405,15.774L227.905,15.774L226.702,18.196L225.78,18.196L230.382,9.094L231.194,9.094L232.608,18.196L231.765,18.196L231.405,15.774ZM228.312,14.969L231.288,14.969L230.616,10.344L228.312,14.969Z" style="fill:white;"/>
            <path d="M240.562,9.915L237.89,9.915L236.452,18.196L235.585,18.196L237.022,9.915L234.358,9.915L234.499,9.094L240.71,9.094L240.562,9.915Z" style="fill:white;"/>
            <path d="M246.741,18.196L245.89,18.196L246.601,14.11L242.296,14.11L241.585,18.196L240.726,18.196L242.312,9.094L243.163,9.094L242.429,13.297L246.733,13.297L247.468,9.094L248.327,9.094L246.741,18.196Z" style="fill:white;"/>
            <path d="M259.413,15.774L255.913,15.774L254.71,18.196L253.788,18.196L258.39,9.094L259.202,9.094L260.616,18.196L259.772,18.196L259.413,15.774ZM256.319,14.969L259.296,14.969L258.624,10.344L256.319,14.969Z" style="fill:white;"/>
            <path d="M263.116,17.391L266.983,17.391L266.835,18.196L262.116,18.196L263.702,9.094L264.554,9.094L263.116,17.391Z" style="fill:white;"/>
            <path d="M274.397,17.11C274.121,17.49 273.723,17.788 273.202,18.004C272.681,18.221 272.088,18.323 271.421,18.313C270.614,18.303 269.977,18.003 269.511,17.415C269.045,16.826 268.796,16.047 268.765,15.079C268.754,14.756 268.767,14.438 268.804,14.125L268.929,13.219C269.111,11.907 269.535,10.864 270.202,10.09C270.869,9.317 271.705,8.943 272.71,8.969C273.496,8.99 274.115,9.249 274.565,9.747C275.016,10.244 275.252,10.904 275.272,11.727L274.421,11.727C274.4,11.118 274.237,10.646 273.933,10.313C273.628,9.98 273.207,9.803 272.671,9.782C271.91,9.756 271.279,10.05 270.776,10.665C270.274,11.279 269.947,12.146 269.796,13.266L269.663,14.266L269.632,14.844C269.616,15.662 269.771,16.308 270.097,16.782C270.422,17.256 270.879,17.498 271.468,17.508C272.322,17.529 273.015,17.29 273.546,16.79L273.937,14.579L271.897,14.579L272.038,13.797L274.929,13.797L274.397,17.11Z" style="fill:white;"/>
            <path d="M281.562,13.883L277.944,13.883L277.335,17.391L281.522,17.391L281.374,18.196L276.335,18.196L277.913,9.094L282.929,9.094L282.78,9.915L278.632,9.915L278.085,13.071L281.71,13.071L281.562,13.883Z" style="fill:white;"/>
            <path d="M283.085,18.196L284.671,9.094L287.007,9.102C287.788,9.123 288.387,9.339 288.804,9.75C289.22,10.162 289.4,10.727 289.343,11.446C289.265,12.394 288.736,13.079 287.757,13.5C288.153,13.646 288.45,13.911 288.647,14.293C288.845,14.676 288.926,15.102 288.89,15.571C288.827,16.383 288.525,17.025 287.983,17.497C287.442,17.968 286.752,18.201 285.913,18.196L283.085,18.196ZM284.694,13.899L284.085,17.391L285.937,17.407C286.52,17.396 287,17.227 287.378,16.899C287.756,16.571 287.976,16.131 288.038,15.579C288.09,15.099 288.004,14.708 287.78,14.403C287.556,14.098 287.197,13.933 286.702,13.907L284.694,13.899ZM284.819,13.133L286.429,13.141C286.991,13.141 287.46,12.997 287.835,12.708C288.21,12.418 288.426,12.008 288.483,11.477C288.582,10.487 288.082,9.969 286.983,9.922L285.382,9.915L284.819,13.133Z" style="fill:white;"/>
            <path d="M294.038,14.547L291.874,14.547L291.241,18.196L290.374,18.196L291.96,9.094L294.546,9.102C295.327,9.123 295.927,9.375 296.347,9.86C296.766,10.344 296.944,10.985 296.882,11.782C296.825,12.412 296.619,12.944 296.265,13.379C295.91,13.814 295.442,14.138 294.858,14.352L296.155,18.11L296.147,18.196L295.226,18.196L294.038,14.547ZM292.015,13.735L293.897,13.75C294.455,13.75 294.933,13.571 295.331,13.211C295.729,12.852 295.96,12.383 296.022,11.805C296.08,11.248 295.974,10.8 295.706,10.461C295.438,10.123 295.043,9.943 294.522,9.922L292.679,9.915L292.015,13.735Z" style="fill:white;"/>
            <path d="M302.671,15.774L299.171,15.774L297.968,18.196L297.046,18.196L301.647,9.094L302.46,9.094L303.874,18.196L303.03,18.196L302.671,15.774ZM299.577,14.969L302.554,14.969L301.882,10.344L299.577,14.969Z" style="fill:white;"/>
            <text x="210.632px" y="18.196px" style="font-family:'RobotoCondensed-LightItalic', 'Roboto Condensed';font-weight:300;font-style:italic;font-size:16px;fill:white;">/<tspan x="248.741px " y="18.196px ">/</tspan></text>
        </g>
        <g transform="matrix(1,0,0,1,4.19948,2.43902)">
            <g>
                <g transform="matrix(0.889881,0,0,0.861394,96.1795,-17.2575)">
                    <text x="205.77px" y="33.359px" style="font-family:'SourceCodePro-Regular', 'Source Code Pro', monospace;font-size:9.61px;fill:white;">PEERS</text>
                </g>
                <g transform="matrix(0.839895,0,0,0.813008,-7.74111,-0.821839)">
                    <text x="342.917px" y="30.123px" style="font-family:'RobotoMono-Bold', 'Roboto Mono';font-weight:700;font-size:11px;fill:white;">7</text>
                    <text x="349.518px" y="30.123px" style="font-family:'RobotoMono-Bold', 'Roboto Mono';font-weight:700;font-size:7px;fill:white;">of</text>
                    <text x="357.919px" y="30.123px" style="font-family:'RobotoMono-Bold', 'Roboto Mono';font-weight:700;font-size:11px;fill:white;">28</text>
                </g>
            </g>
            <g transform="matrix(1,0,0,1,-1.37176,0.0873349)">
                <g transform="matrix(0.839895,0,0,0.813008,61.541,-15.6351)">
                    <text x="205.77px" y="33.359px" style="font-family:'SourceCodePro-Regular', 'Source Code Pro', monospace;font-size:10.182px;fill:white;">REQUESTS</text>
                </g>
                <g transform="matrix(0.839895,0,0,0.813008,70.4235,-1.00353)">
                    <text x="213.029px" y="30.239px" style="font-family:'RobotoMono-Bold', 'Roboto Mono';font-weight:700;font-size:11px;fill:white;">12</text>
                </g>
            </g>
            <g transform="matrix(1,0,0,1,-1.87612,0.0873349)">
                <g transform="matrix(0.839895,0,0,0.813008,25.3165,3.62738)">
                    <text x="212.706px" y="9.656px" style="font-family:'SourceCodePro-Regular', 'Source Code Pro', monospace;font-size:10.182px;fill:white;">BOOKS</text>
                </g>
                <g transform="matrix(0.839895,0,0,0.813008,29.5565,-1.00353)">
                    <text x="213.029px" y="30.239px" style="font-family:'RobotoMono-Bold', 'Roboto Mono';font-weight:700;font-size:11px;fill:white;">733</text>
                </g>
            </g>
            <g transform="matrix(1,0,0,1,0,0.0873349)">
                <g transform="matrix(0.839895,0,0,0.813008,-76.4914,2.36555)">
                    <text x="288.785px" y="11.208px" style="font-family:'SourceCodePro-Regular', 'Source Code Pro', monospace;font-size:10.182px;fill:white;">PAPERS</text>
                </g>
                <g transform="matrix(0.957582,0,0,0.926928,-33.6309,-4.44838)">
                    <text x="213.029px" y="30.239px" style="font-family:'RobotoMono-Bold', 'Roboto Mono';font-weight:700;font-size:9.648px;fill:white;">3142</text>
                </g>
            </g>
        </g>
    </g>
</svg>
