<?xml version="1.0" encoding="UTF-8" standalone="no"?>
<!DOCTYPE svg PUBLIC "-//W3C//DTD SVG 1.1//EN" "http://www.w3.org/Graphics/SVG/1.1/DTD/svg11.dtd">
<svg width="100%" height="100%" viewBox="0 0 407 518" version="1.1" xmlns="http://www.w3.org/2000/svg" xmlns:xlink="http://www.w3.org/1999/xlink" xml:space="preserve" style="fill-rule:evenodd;clip-rule:evenodd;stroke-linejoin:round;stroke-miterlimit:1.41421;">
    <g id="Artboard1" transform="matrix(2.14211,0,0,1.69281,861.126,-47.3987)">
        <rect x="-402" y="28" width="190" height="306"/>
        <g transform="matrix(17.4233,0,0,17.7161,4573.85,-3505.67)">
            <g transform="matrix(0.288813,0,0,0.359427,-537.169,-101.748)">
                <path d="M889.96,860.428C889.867,860.928 889.738,861.435 889.574,861.951C889.41,862.467 889.204,862.963 888.958,863.439C888.712,863.916 888.427,864.363 888.103,864.781C887.779,865.199 887.411,865.564 887.001,865.877C886.591,866.189 886.14,866.435 885.648,866.615C885.156,866.795 884.62,866.885 884.042,866.885C883.667,866.885 883.3,866.838 882.941,866.744C882.581,866.65 882.243,866.516 881.927,866.34C881.611,866.164 881.322,865.947 881.06,865.689C880.798,865.432 880.581,865.135 880.41,864.799L879.226,871.525L878.605,871.525L881.628,853.971L882.261,853.971L881.851,856.08C882.109,855.752 882.398,855.445 882.718,855.16C883.038,854.875 883.384,854.627 883.755,854.416C884.126,854.205 884.515,854.039 884.921,853.918C885.327,853.797 885.749,853.736 886.187,853.736C886.773,853.736 887.286,853.83 887.728,854.017C888.169,854.205 888.542,854.457 888.847,854.773C889.152,855.09 889.398,855.461 889.585,855.887C889.773,856.312 889.91,856.766 889.995,857.246C890.081,857.726 890.12,858.217 890.113,858.717C890.105,859.217 890.066,859.705 889.995,860.182L889.96,860.428ZM889.351,860.182C889.421,859.775 889.464,859.35 889.48,858.904C889.495,858.459 889.474,858.021 889.415,857.592C889.357,857.162 889.255,856.752 889.111,856.361C888.966,855.971 888.767,855.629 888.513,855.336C888.259,855.043 887.941,854.809 887.558,854.633C887.175,854.457 886.722,854.369 886.199,854.369C885.706,854.369 885.238,854.449 884.792,854.609C884.347,854.769 883.931,854.986 883.544,855.26C883.158,855.533 882.808,855.853 882.495,856.221C882.183,856.588 881.913,856.978 881.687,857.392L880.574,863.65C880.667,864.064 880.824,864.432 881.042,864.752C881.261,865.072 881.525,865.344 881.833,865.566C882.142,865.789 882.486,865.959 882.865,866.076C883.243,866.193 883.64,866.252 884.054,866.252C884.57,866.252 885.048,866.168 885.49,866C885.931,865.832 886.331,865.607 886.691,865.326C887.05,865.045 887.372,864.717 887.658,864.342C887.943,863.967 888.195,863.564 888.413,863.135C888.632,862.705 888.816,862.26 888.964,861.799C889.113,861.338 889.23,860.881 889.316,860.428L889.351,860.182Z" style="fill:white;fill-rule:nonzero;"/>
                <path d="M888.704,866.017C888.711,865.939 888.741,865.859 888.791,865.777C888.842,865.695 888.903,865.621 888.973,865.555C889.043,865.488 889.122,865.435 889.207,865.396C889.293,865.357 889.379,865.338 889.465,865.338C889.559,865.338 889.645,865.359 889.723,865.402C889.801,865.445 889.868,865.502 889.922,865.572C889.977,865.642 890.018,865.721 890.045,865.807C890.073,865.892 890.079,865.978 890.063,866.064C890.032,866.228 889.936,866.379 889.776,866.516C889.616,866.652 889.45,866.721 889.278,866.721C889.098,866.713 888.95,866.637 888.832,866.492C888.715,866.348 888.672,866.189 888.704,866.017Z" style="fill:white;fill-rule:nonzero;"/>
                <path d="M894.765,866.252C895.319,866.252 895.843,866.17 896.335,866.006C896.827,865.842 897.274,865.609 897.677,865.309C898.079,865.008 898.431,864.646 898.731,864.225C899.032,863.803 899.268,863.334 899.44,862.818L900.073,862.818C899.901,863.42 899.647,863.971 899.311,864.471C898.975,864.971 898.577,865.398 898.116,865.754C897.655,866.109 897.141,866.387 896.575,866.586C896.009,866.785 895.409,866.885 894.776,866.885C894.198,866.885 893.684,866.797 893.235,866.621C892.786,866.445 892.395,866.205 892.063,865.9C891.731,865.596 891.46,865.238 891.249,864.828C891.038,864.418 890.876,863.978 890.763,863.51C890.649,863.041 890.587,862.555 890.575,862.051C890.563,861.547 890.597,861.049 890.675,860.557L890.757,860.064C890.897,859.291 891.136,858.527 891.472,857.773C891.807,857.019 892.233,856.344 892.749,855.746C893.265,855.148 893.87,854.664 894.565,854.293C895.261,853.922 896.042,853.736 896.909,853.736C897.557,853.736 898.136,853.85 898.643,854.076C899.151,854.303 899.579,854.613 899.927,855.008C900.274,855.402 900.53,855.869 900.694,856.408C900.858,856.947 900.925,857.529 900.893,858.154L900.272,858.154C900.304,857.615 900.253,857.115 900.12,856.654C899.987,856.193 899.776,855.793 899.487,855.453C899.198,855.113 898.837,854.848 898.403,854.656C897.97,854.465 897.475,854.369 896.921,854.369C896.397,854.369 895.911,854.445 895.462,854.598C895.013,854.75 894.598,854.961 894.22,855.23C893.841,855.5 893.497,855.816 893.188,856.18C892.88,856.543 892.608,856.935 892.374,857.357C892.14,857.779 891.94,858.221 891.776,858.682C891.612,859.142 891.487,859.603 891.401,860.064L891.307,860.557C891.237,860.986 891.2,861.426 891.196,861.875C891.192,862.324 891.231,862.76 891.313,863.182C891.395,863.603 891.522,864 891.694,864.371C891.866,864.742 892.093,865.066 892.374,865.344C892.655,865.621 892.993,865.842 893.388,866.006C893.782,866.17 894.241,866.252 894.765,866.252Z" style="fill:white;fill-rule:nonzero;"/>
            </g>
            <g transform="matrix(1.20213e-17,0.244322,-0.255393,1.94619e-17,-79.9437,14.5813)">
                <path d="M815.82,783.863C815.64,784.98 815.386,786.124 815.058,787.296C814.73,788.468 814.302,789.595 813.775,790.677C813.248,791.759 812.611,792.761 811.865,793.683C811.119,794.605 810.238,795.378 809.222,796.003L809.058,795.476C809.98,794.851 810.787,794.095 811.478,793.208C812.17,792.322 812.759,791.363 813.248,790.331C813.736,789.3 814.136,788.232 814.449,787.126C814.761,786.021 815.004,784.941 815.175,783.886L815.222,783.581C815.316,782.964 815.394,782.31 815.457,781.618C815.519,780.927 815.547,780.224 815.539,779.509C815.531,778.794 815.48,778.081 815.386,777.37C815.293,776.659 815.138,775.976 814.923,775.32C814.709,774.663 814.422,774.05 814.062,773.48C813.703,772.909 813.257,772.406 812.726,771.968L813.007,771.488C813.578,771.941 814.058,772.464 814.449,773.058C814.84,773.652 815.156,774.288 815.398,774.968C815.64,775.648 815.82,776.359 815.937,777.101C816.054,777.843 816.123,778.587 816.142,779.333C816.162,780.079 816.142,780.818 816.084,781.548C816.025,782.279 815.949,782.972 815.855,783.628L815.82,783.863Z" style="fill:white;fill-rule:nonzero;"/>
            </g>
            <g transform="matrix(0.000158557,-0.317836,0.255393,0.000197324,-480.399,462.099)">
                <path d="M815.82,783.863C815.64,784.98 815.386,786.124 815.058,787.296C814.73,788.468 814.302,789.595 813.775,790.677C813.248,791.759 812.611,792.761 811.865,793.683C811.119,794.605 810.238,795.378 809.222,796.003L809.058,795.476C809.98,794.851 810.787,794.095 811.478,793.208C812.17,792.322 812.759,791.363 813.248,790.331C813.736,789.3 814.136,788.232 814.449,787.126C814.761,786.021 815.004,784.941 815.175,783.886L815.222,783.581C815.316,782.964 815.394,782.31 815.457,781.618C815.519,780.927 815.547,780.224 815.539,779.509C815.531,778.794 815.48,778.081 815.386,777.37C815.293,776.659 815.138,775.976 814.923,775.32C814.709,774.663 814.422,774.05 814.062,773.48C813.703,772.909 813.257,772.406 812.726,771.968L813.007,771.488C813.578,771.941 814.058,772.464 814.449,773.058C814.84,773.652 815.156,774.288 815.398,774.968C815.64,775.648 815.82,776.359 815.937,777.101C816.054,777.843 816.123,778.587 816.142,779.333C816.162,780.079 816.142,780.818 816.084,781.548C816.025,782.279 815.949,782.972 815.855,783.628L815.82,783.863Z" style="fill:white;fill-rule:nonzero;"/>
            </g>
        </g>
    </g>
</svg>
